<svg width="60" height="60" viewBox="0 0 60 60" fill="none" xmlns="http://www.w3.org/2000/svg">
<g clip-path="url(#clip0_1832_1889)">
<path d="M39.1455 4.29359C38.3361 4.76907 36.9805 6.13483 35.3618 8.1076V8.229L36.7782 10.8492L36.849 10.8998C37.891 9.41265 38.9431 8.06713 40.0155 6.92394C40.0964 6.83289 40.1369 6.79242 40.1369 6.79242C40.0964 6.83289 40.056 6.88347 40.0155 6.92394C39.6715 7.30837 38.6194 8.52238 37.0412 10.9504L37.2233 10.9909C37.2233 10.9909 40.9159 10.6267 42.6964 10.3232L42.7976 10.2321C43.3642 7.05546 42.2412 5.59865 42.2412 5.59865C42.2412 5.59865 40.8249 3.31227 39.1455 4.29359Z" fill="url(#paint0_linear_1832_1889)"/>
<path d="M32.4783 18.1335C32.9335 17.2938 33.3888 16.4642 33.844 15.665C34.3195 14.8354 34.8051 14.0261 35.3008 13.2471C35.3312 13.2066 35.3615 13.156 35.3818 13.1054C35.8674 12.3366 36.353 11.6082 36.8487 10.9L35.3615 8.09766C35.2503 8.22917 35.139 8.37081 35.0277 8.51244C34.6028 9.04863 34.1577 9.61517 33.7024 10.2222C33.1864 10.9101 32.6604 11.6385 32.1242 12.4074C31.6285 13.1156 31.1226 13.8642 30.6269 14.6229C30.202 15.2805 29.767 15.9482 29.3421 16.6463C29.3219 16.6766 29.3117 16.6969 29.2915 16.7272V16.8385L31.1429 20.5109L31.2238 20.5412C31.6386 19.7319 32.0534 18.9226 32.4783 18.1335Z" fill="url(#paint1_linear_1832_1889)"/>
<path d="M24.4155 36.1102C24.7494 35.2402 25.1034 34.36 25.4575 33.4698C25.8015 32.6199 26.1455 31.76 26.5097 30.9001C26.8638 30.0402 27.2381 29.1803 27.6124 28.3102C27.9968 27.4301 28.3813 26.5499 28.7758 25.6799C29.1704 24.8199 29.5649 23.96 29.9696 23.1102C30.1112 22.8067 30.263 22.4931 30.4147 22.1896C30.6677 21.6635 30.9307 21.1375 31.1836 20.6215C31.1937 20.5912 31.214 20.5709 31.2241 20.5406L29.2918 16.7266C29.2614 16.7771 29.2311 16.8277 29.2007 16.8783C28.7556 17.6168 28.3003 18.3655 27.8653 19.1343C27.4202 19.9133 26.9852 20.7024 26.5603 21.5017C26.1961 22.1795 25.8521 22.8573 25.5081 23.5452C25.4373 23.6869 25.3766 23.8184 25.3058 23.96C24.8809 24.8301 24.5066 25.6596 24.1626 26.469C23.7782 27.3795 23.4342 28.2495 23.1307 29.0791C22.9284 29.6254 22.7564 30.1413 22.5844 30.6472C22.4529 31.0721 22.3213 31.5071 22.1999 31.932C21.9066 32.9437 21.6638 33.9452 21.4614 34.9569L21.4918 35.0783L23.3431 38.7608L23.4038 38.7912C23.6568 38.1032 23.9198 37.4153 24.1929 36.7071C24.2638 36.5048 24.3447 36.3126 24.4155 36.1102Z" fill="url(#paint2_linear_1832_1889)"/>
<path d="M21.4411 35.0885C21.1983 36.3127 21.0263 37.5368 20.9353 38.7508C20.9353 38.7913 20.9251 38.8317 20.9251 38.8823C20.3181 37.9111 18.6995 36.9703 18.6995 36.9703C19.8629 38.6496 20.743 40.3189 20.8746 41.9578C20.2574 42.0893 19.4076 41.8971 18.4162 41.543C19.438 42.4839 20.2069 42.7469 20.5104 42.8177C19.5695 42.8784 18.5882 43.5259 17.5967 44.2644C19.0434 43.6777 20.2069 43.445 21.0465 43.6271C19.7212 47.3804 18.396 51.5282 17.0605 55.9189C17.4652 55.7975 17.708 55.5243 17.8497 55.15C18.0823 54.3508 19.6605 49.1306 22.1189 42.2613C22.1897 42.0691 22.2605 41.8668 22.3314 41.6745C22.3516 41.624 22.3718 41.5633 22.3921 41.5127C22.6551 40.7944 22.9181 40.0559 23.2014 39.3072C23.2621 39.1352 23.3329 38.9633 23.3936 38.7913V38.7812L21.4613 34.957C21.4613 35.0076 21.4512 35.0481 21.4411 35.0885Z" fill="url(#paint3_linear_1832_1889)"/>
<path d="M37.0412 10.9605C36.6062 11.6282 36.1307 12.3869 35.6148 13.2469C35.5844 13.2873 35.5642 13.3379 35.5338 13.3784C35.0887 14.127 34.6233 14.9364 34.1276 15.8367C33.7027 16.6056 33.2576 17.4352 32.7922 18.3356C32.3875 19.1146 31.9728 19.934 31.5479 20.8142L31.6389 20.8546L36.3432 20.3488L36.4545 20.2679C37.8809 19.6103 38.5183 19.0134 39.1354 18.1535C39.2973 17.9208 39.4693 17.6679 39.6311 17.4149C40.137 16.6258 40.6327 15.7659 41.0677 14.906C41.4926 14.0764 41.8669 13.2469 42.1603 12.5083C42.3424 12.0328 42.4942 11.5978 42.5953 11.2134C42.6864 10.8694 42.7572 10.5457 42.8078 10.2422C40.9058 10.576 38.5689 10.8897 37.0412 10.9605Z" fill="url(#paint4_linear_1832_1889)"/>
<path d="M31.3657 21.2081C31.2038 21.5521 31.0318 21.9061 30.8598 22.2602C30.6777 22.6447 30.4855 23.0493 30.3034 23.454C30.2124 23.6563 30.1112 23.8688 30.0202 24.0711C29.7268 24.6984 29.4435 25.3458 29.14 26.0135C28.7758 26.833 28.4015 27.6929 28.0272 28.5731C27.663 29.4229 27.2988 30.2929 26.9346 31.2034C26.5805 32.0633 26.2264 32.9536 25.8723 33.8641C25.5486 34.6836 25.2248 35.5131 24.9011 36.3832C24.8809 36.4236 24.8707 36.4641 24.8505 36.5046C24.5268 37.3645 24.211 38.2393 23.8772 39.1397C23.8671 39.1599 23.849 39.2126 23.8389 39.2328L23.9087 39.2483L25.3159 39.0969L25.3953 39.0641C25.365 39.054 25.3462 39.0135 25.3159 39.0034C27.1774 38.7707 29.656 37.3746 31.2645 35.6548C32.003 34.8657 32.6707 33.9248 33.298 32.8322C33.7634 32.0128 34.1883 31.1124 34.603 30.1108C34.9672 29.2408 35.3112 28.2898 35.6451 27.268C35.2202 27.4906 34.7244 27.6626 34.1883 27.7738C34.0972 27.7941 33.996 27.8143 33.8949 27.8345C33.7937 27.8548 33.6925 27.8649 33.6015 27.8851C35.3416 27.2174 36.4342 25.9225 37.2334 24.3443C36.7781 24.6579 36.0295 25.0626 35.1392 25.2649C35.0178 25.2952 34.8964 25.3155 34.7649 25.3357C34.7346 25.3357 34.7042 25.3458 34.6739 25.3458C35.2809 25.0929 35.7867 24.8096 36.2318 24.4758C36.3229 24.405 36.4139 24.3342 36.505 24.2532C36.6365 24.1318 36.768 24.0104 36.8894 23.889C36.9704 23.8081 37.0412 23.7271 37.1221 23.6361C37.2941 23.4338 37.456 23.2112 37.6077 22.9684C37.6583 22.8976 37.6988 22.8166 37.7493 22.7458C37.81 22.6345 37.8606 22.5233 37.9112 22.412C38.154 21.9264 38.3462 21.4914 38.498 21.1069C38.5789 20.9147 38.6396 20.7427 38.7003 20.5707C38.7206 20.51 38.7408 20.4392 38.7711 20.3785C38.8318 20.1964 38.8824 20.0345 38.9229 19.8828C38.9836 19.6703 39.0139 19.4984 39.0342 19.377C38.9735 19.4275 38.9128 19.468 38.8318 19.5186C38.3058 19.8322 37.4054 20.1155 36.677 20.247C36.5758 20.2672 36.505 20.2773 36.4241 20.2976C36.4308 20.2908 34.8083 20.4624 31.5565 20.8122C31.5363 20.8325 31.4163 21.0867 31.3657 21.2081Z" fill="url(#paint5_linear_1832_1889)"/>
<path d="M23.6869 39.6113C23.434 40.3093 23.1709 41.0276 22.918 41.756C22.918 41.7661 22.9079 41.7762 22.9079 41.7864C22.8674 41.8875 22.8371 41.9887 22.7966 42.1C22.6246 42.5957 22.4729 43.0307 22.1289 44.0424C22.6954 44.3054 23.1507 44.9832 23.5857 45.7622C23.5452 44.963 23.2114 44.2043 22.574 43.6276C25.3764 43.749 27.7943 43.0408 29.0386 40.9973C29.1499 40.8152 29.2511 40.6229 29.3421 40.4206C28.7756 41.1389 28.0674 41.4424 26.7523 41.3716C28.7048 40.5015 29.676 39.6618 30.546 38.2759C30.7484 37.942 30.9507 37.5879 31.153 37.1934C29.4433 38.9436 27.4705 39.4393 25.3966 39.065L23.8386 39.2369C23.7881 39.3482 23.7375 39.4797 23.6869 39.6113Z" fill="url(#paint6_linear_1832_1889)"/>
</g>
<defs>
<linearGradient id="paint0_linear_1832_1889" x1="159.646" y1="447.681" x2="1232.65" y2="90.5462" gradientUnits="userSpaceOnUse">
<stop stop-color="#F69923"/>
<stop offset="0.3123" stop-color="#F79A23"/>
<stop offset="0.8383" stop-color="#E97826"/>
</linearGradient>
<linearGradient id="paint1_linear_1832_1889" x1="-1615.54" y1="4919.23" x2="2049.45" y2="2020.24" gradientUnits="userSpaceOnUse">
<stop offset="0.3233" stop-color="#9E2064"/>
<stop offset="0.6302" stop-color="#C92037"/>
<stop offset="0.7514" stop-color="#CD2335"/>
<stop offset="1" stop-color="#E97826"/>
</linearGradient>
<linearGradient id="paint2_linear_1832_1889" x1="-759.98" y1="3776.94" x2="2809.11" y2="2278.49" gradientUnits="userSpaceOnUse">
<stop offset="0.3233" stop-color="#9E2064"/>
<stop offset="0.6302" stop-color="#C92037"/>
<stop offset="0.7514" stop-color="#CD2335"/>
<stop offset="1" stop-color="#E97826"/>
</linearGradient>
<linearGradient id="paint3_linear_1832_1889" x1="-98.9348" y1="1656.57" x2="1488.58" y2="1345.81" gradientUnits="userSpaceOnUse">
<stop stop-color="#282662"/>
<stop offset="0.0954839" stop-color="#662E8D"/>
<stop offset="0.7882" stop-color="#9F2064"/>
<stop offset="0.9487" stop-color="#CD2032"/>
</linearGradient>
<linearGradient id="paint4_linear_1832_1889" x1="-1429.8" y1="4931.39" x2="569.165" y2="105.407" gradientUnits="userSpaceOnUse">
<stop offset="0.3233" stop-color="#9E2064"/>
<stop offset="0.6302" stop-color="#C92037"/>
<stop offset="0.7514" stop-color="#CD2335"/>
<stop offset="1" stop-color="#E97826"/>
</linearGradient>
<linearGradient id="paint5_linear_1832_1889" x1="-506.18" y1="3749.35" x2="2664.78" y2="-230.973" gradientUnits="userSpaceOnUse">
<stop offset="0.3233" stop-color="#9E2064"/>
<stop offset="0.6302" stop-color="#C92037"/>
<stop offset="0.7514" stop-color="#CD2335"/>
<stop offset="1" stop-color="#E97826"/>
</linearGradient>
<linearGradient id="paint6_linear_1832_1889" x1="-163.939" y1="1687.25" x2="1042.47" y2="-1182.2" gradientUnits="userSpaceOnUse">
<stop stop-color="#282662"/>
<stop offset="0.0954839" stop-color="#662E8D"/>
<stop offset="0.7882" stop-color="#9F2064"/>
<stop offset="0.9487" stop-color="#CD2032"/>
</linearGradient>
<clipPath id="clip0_1832_1889">
<rect width="26" height="52" fill="white" transform="translate(17 4)"/>
</clipPath>
</defs>
</svg>
