<svg width="400" height="400" viewBox="0 0 400 400" fill="none" xmlns="http://www.w3.org/2000/svg">
<path d="M199.843 345.332L95.2976 316.309L72 55H328L304.678 316.268L199.843 345.332Z" fill="#264DE4"/>
<path d="M284.711 299.632L304.642 76.3657H200V323.117L284.711 299.632Z" fill="#2965F1"/>
<path d="M125.41 173.282L128.283 205.33H200.001V173.282H125.41Z" fill="#EBEBEB"/>
<path d="M119.641 108.415L122.554 140.463H200.003V108.415H119.641Z" fill="#EBEBEB"/>
<path d="M199.997 256.515L199.857 256.552L164.164 246.915L161.883 221.354H129.711L134.201 271.675L199.85 289.9L199.997 289.859V256.515Z" fill="#EBEBEB"/>
<path d="M274.383 173.282L280.169 108.415H199.887V140.463H245.046L242.13 173.282H199.887V205.33H239.351L235.631 246.894L199.887 256.542V289.884L265.588 271.675L266.07 266.261L273.601 181.887L274.383 173.282Z" fill="white"/>
</svg>
