<svg width="60" height="60" viewBox="0 0 60 60" fill="none" xmlns="http://www.w3.org/2000/svg">
<g clip-path="url(#clip0_1832_1894)">
<path d="M34.0684 31.4633C33.2069 31.4753 34.2314 31.9071 35.3561 32.0802C35.6668 31.8376 35.9486 31.5922 36.1998 31.3535C35.4994 31.5251 34.7866 31.5289 34.0684 31.4633Z" fill="#A80030"/>
<path d="M38.6924 30.3118C39.2053 29.6039 39.5792 28.8288 39.7111 28.0273C39.596 28.5987 39.2859 29.0919 38.9939 29.6125C37.3836 30.6263 38.8424 29.0104 38.9929 28.3964C37.2613 30.5755 38.7552 29.7031 38.6924 30.3118Z" fill="#A80030"/>
<path d="M40.399 25.8721C40.5031 24.3209 40.0936 24.8113 39.9561 25.4033C40.1167 25.4867 40.2437 26.4966 40.399 25.8721Z" fill="#A80030"/>
<path d="M30.8018 4.66992C31.2615 4.75237 31.7951 4.81564 31.7203 4.9254C32.2232 4.81516 32.3373 4.71354 30.8018 4.66992Z" fill="#A80030"/>
<path d="M31.7205 4.92578L31.3955 4.99289L31.698 4.96604L31.7205 4.92578Z" fill="#A80030"/>
<path d="M46.0564 26.46C46.1077 27.8529 45.6489 28.5288 45.2352 29.7252L44.4907 30.0971C43.8813 31.2801 44.5496 30.8483 44.1134 31.7892C43.1622 32.6347 41.2269 34.4351 40.6075 34.5995C40.1554 34.5894 40.9139 34.066 41.0131 33.8608C39.7398 34.7351 39.9915 35.1732 38.0442 35.7043L37.9871 35.5778C33.1845 37.8369 26.5131 33.3599 26.6009 27.2514C26.5496 27.6391 26.4551 27.5423 26.3487 27.6991C26.1008 24.5561 27.8003 21.3992 30.6667 20.1103C33.4702 18.7227 36.757 19.2921 38.7652 21.1634C37.6621 19.7187 35.4664 18.1873 32.8642 18.3306C30.3153 18.3708 27.9307 19.9905 27.1349 21.7487C25.829 22.5707 25.6775 24.9175 25.1085 25.347C24.3429 30.9729 26.5486 33.4036 30.2798 36.2627C30.8671 36.6587 30.4452 36.7186 30.5248 37.0201C29.285 36.4396 28.1498 35.5634 27.2164 34.4907C27.7116 35.2154 28.2462 35.92 28.937 36.4737C27.7682 36.0777 26.2068 33.6418 25.7509 33.5426C27.7658 37.1495 33.9256 39.8683 37.151 38.5194C35.6587 38.5746 33.7626 38.5501 32.0857 37.9303C31.3814 37.568 30.4236 36.8173 30.5947 36.6769C34.9966 38.321 39.5437 37.9222 43.3526 34.8693C44.3214 34.1149 45.3799 32.8312 45.6858 32.8135C45.2251 33.5061 45.7644 33.1466 45.4106 33.7583C46.3761 32.2014 44.9912 33.1246 46.4087 31.0697L46.9322 31.7906C46.7376 30.4983 48.5373 28.929 48.3546 26.8852C48.7674 26.2601 48.8153 27.5577 48.3772 28.9956C48.985 27.4004 48.5373 27.144 48.6936 25.8278C48.8623 26.2702 49.0838 26.7404 49.1974 27.2073C48.8014 25.6658 49.6039 24.6112 49.8024 23.7154C49.6068 23.6286 49.1912 24.397 49.0963 22.576C49.1102 21.7851 49.3163 22.1614 49.3959 21.9668C49.2406 21.8776 48.8331 21.2713 48.5852 20.1084C48.765 19.8352 49.0656 20.8169 49.3101 20.8571C49.1528 19.9325 48.882 19.2274 48.8709 18.518C48.1566 17.0254 48.6183 18.7169 48.0387 17.8771C47.2784 15.5059 48.6696 17.3269 48.7636 16.2493C49.916 17.9188 50.5733 20.5063 50.8748 21.578C50.6447 20.2714 50.2727 19.0055 49.8187 17.7808C50.1687 17.9279 49.2549 15.0922 50.2737 16.9703C49.1854 12.9669 45.6163 9.22621 42.3329 7.47091C42.7346 7.83856 43.2418 8.30015 43.0596 8.37253C41.4268 7.40045 41.714 7.32472 41.48 6.91393C40.1497 6.37277 40.0624 6.95755 39.1813 6.91489C36.674 5.58523 36.1908 5.72664 33.8834 4.89356L33.9884 5.38392C32.3273 4.83077 32.0531 5.59386 30.2577 5.38583C30.1484 5.30051 30.833 5.07714 31.3963 4.99518C29.7903 5.20704 29.8656 4.67882 28.2941 5.05366C28.6815 4.78188 29.0909 4.60213 29.5041 4.37109C28.1944 4.45066 26.3775 5.13323 26.9384 4.5125C24.8022 5.4654 21.0082 6.80321 18.8792 8.79913L18.812 8.35192C17.8365 9.52292 14.5578 11.8491 14.2966 13.3657L14.0358 13.4266C13.5281 14.286 13.1997 15.26 12.797 16.1444C12.133 17.2756 11.8238 16.5796 11.9183 16.7569C10.6124 19.4043 9.96374 21.6288 9.40332 23.4532C9.80266 24.0499 9.41291 27.0457 9.56392 29.4433C8.9081 41.2847 17.8758 52.7819 27.6781 55.4364C29.1148 55.9502 31.2515 55.9306 33.0689 55.9833C30.9246 55.3702 30.6475 55.6583 28.5587 54.9302C27.052 54.2208 26.7217 53.4107 25.6545 52.4847L26.0769 53.231C23.9838 52.4904 24.8597 52.3145 23.1568 51.7753L23.608 51.1862C22.9296 51.1349 21.8112 50.043 21.5053 49.4385L20.7632 49.4678C19.8715 48.3677 19.3964 47.5749 19.4309 46.9609L19.1912 47.388C18.9194 46.9216 15.9107 43.2624 17.4716 44.1142C17.1816 43.8491 16.7962 43.6828 16.3781 42.9235L16.696 42.5602C15.9447 41.5938 15.3134 40.3553 15.3613 39.9426C15.7621 40.4837 16.0401 40.5849 16.3153 40.6774C14.4183 35.9713 14.3119 40.4181 12.8751 35.887L13.1791 35.8625C12.9461 35.5116 12.8047 35.1306 12.6172 34.7567L12.7495 33.4385C11.3837 31.8596 12.3675 26.7251 12.5645 23.909C12.7011 22.7639 13.7045 21.545 14.4677 19.6334L14.0027 19.5534C14.8915 18.0032 19.0776 13.3278 21.0163 13.5685C21.9555 12.3888 20.8298 13.5641 20.6462 13.267C22.7091 11.1325 23.3577 11.759 24.7499 11.375C26.2514 10.484 23.4613 11.7226 24.1732 11.0352C26.7687 10.3723 26.0126 9.52819 29.3986 9.1917C29.7558 9.39494 28.5698 9.50566 28.2721 9.76929C30.4346 8.71141 35.1155 8.95204 38.1559 10.3565C41.6838 12.0049 45.6475 16.8777 45.8037 21.4625L45.9816 21.5105C45.8915 23.3329 46.2606 25.4405 45.6211 27.3765L46.0564 26.46Z" fill="#A80030"/>
<path d="M24.6652 32.6465L24.5444 33.2504C25.1106 34.0193 25.5598 34.8524 26.2827 35.4534C25.7626 34.4382 25.3762 34.0188 24.6652 32.6465Z" fill="#A80030"/>
<path d="M26.0041 32.5942C25.7045 32.263 25.5271 31.8642 25.3286 31.4668C25.5185 32.1652 25.9073 32.7653 26.2692 33.3755L26.0041 32.5942Z" fill="#A80030"/>
<path d="M49.6881 27.4473L49.5616 27.7646C49.3295 29.4125 48.8285 31.0432 48.0605 32.555C48.9091 30.9598 49.458 29.215 49.6881 27.4473Z" fill="#A80030"/>
<path d="M30.9721 4.2574C31.5545 4.0441 32.404 4.14044 33.022 4C32.2166 4.06759 31.415 4.10785 30.6235 4.20995L30.9721 4.2574Z" fill="#A80030"/>
<path d="M10.5232 15.1289C10.6574 16.3713 9.58832 16.8535 10.76 16.0344C11.388 14.6199 10.5145 15.6437 10.5232 15.1289Z" fill="#A80030"/>
<path d="M9.1463 20.8794C9.4162 20.0511 9.4651 19.5535 9.56817 19.0742C8.82222 20.0276 9.22492 20.2308 9.1463 20.8794Z" fill="#A80030"/>
</g>
<defs>
<clipPath id="clip0_1832_1894">
<rect width="42" height="52" fill="white" transform="translate(9 4)"/>
</clipPath>
</defs>
</svg>
