<svg width="400" height="400" viewBox="0 0 400 400" fill="none" xmlns="http://www.w3.org/2000/svg">
<path d="M323.172 188.596L211.398 76.8285C204.966 70.3905 194.525 70.3905 188.084 76.8285L164.875 100.039L194.317 129.482C201.16 127.17 209.005 128.721 214.46 134.176C219.94 139.664 221.479 147.577 219.111 154.442L247.486 182.818C254.351 180.453 262.272 181.984 267.755 187.475C275.418 195.135 275.418 207.55 267.755 215.216C260.09 222.882 247.675 222.882 240.006 215.216C234.243 209.446 232.819 200.98 235.737 193.879L209.275 167.416L209.272 237.055C211.14 237.982 212.904 239.215 214.46 240.766C222.122 248.426 222.122 260.841 214.46 268.513C206.794 276.175 194.373 276.175 186.719 268.513C179.057 260.841 179.057 248.426 186.719 240.766C188.612 238.876 190.803 237.446 193.14 236.485V166.197C190.803 165.242 188.615 163.821 186.719 161.917C180.913 156.119 179.517 147.599 182.492 140.47L153.471 111.443L76.8306 188.079C70.3898 194.523 70.3898 204.963 76.8306 211.401L188.604 323.171C195.039 329.61 205.477 329.61 211.921 323.171L323.172 211.921C329.609 205.48 329.609 195.034 323.172 188.596Z" fill="#DE4C36"/>
</svg>
