<svg width="400" height="400" viewBox="0 0 400 400" fill="none" xmlns="http://www.w3.org/2000/svg">
<path d="M328 55L304.678 316.268L199.843 345.332L95.2976 316.309L72 55H328Z" fill="#E44D26"/>
<path d="M200 323.117L284.711 299.632L304.642 76.3657H200V323.117Z" fill="#F16529"/>
<path d="M154.666 140.463H200.003V108.415H119.641L120.408 117.013L128.285 205.33H200.003V173.282H157.595L154.666 140.463Z" fill="#EBEBEB"/>
<path d="M161.883 221.354H129.711L134.201 271.675L199.85 289.9L199.997 289.859V256.515L199.857 256.552L164.164 246.915L161.883 221.354Z" fill="#EBEBEB"/>
<path d="M199.887 205.33H239.351L235.631 246.894L199.887 256.542V289.885L265.588 271.675L266.07 266.261L273.601 181.888L274.383 173.282H199.887V205.33Z" fill="white"/>
<path d="M199.887 140.385V140.463H277.299L277.942 133.26L279.402 117.013L280.169 108.415H199.887V140.385Z" fill="white"/>
</svg>
