<svg width="400" height="400" viewBox="0 0 400 400" fill="none" xmlns="http://www.w3.org/2000/svg">
<path d="M72 72H328V328H72V72Z" fill="#F7DF1E"/>
<path d="M139.313 285.932L158.904 274.076C162.683 280.777 166.121 286.447 174.368 286.447C182.273 286.447 187.257 283.355 187.257 271.327V189.529H211.315V271.667C211.315 296.584 196.709 307.926 175.4 307.926C156.154 307.926 144.983 297.959 139.312 285.93" fill="black"/>
<path d="M224.383 283.354L243.971 272.013C249.128 280.434 255.83 286.62 267.686 286.62C277.654 286.62 284.011 281.636 284.011 274.762C284.011 266.514 277.481 263.592 266.483 258.782L260.47 256.203C243.113 248.815 231.599 239.535 231.599 219.945C231.599 201.901 245.346 188.153 266.828 188.153C282.122 188.153 293.12 193.481 301.024 207.4L282.292 219.429C278.168 212.04 273.701 209.119 266.828 209.119C259.782 209.119 255.314 213.587 255.314 219.429C255.314 226.646 259.782 229.568 270.092 234.037L276.106 236.614C296.555 245.379 308.069 254.313 308.069 274.418C308.069 296.072 291.057 307.928 268.202 307.928C245.863 307.928 231.427 297.274 224.383 283.354Z" fill="black"/>
</svg>
