<svg width="400" height="400" viewBox="0 0 400 400" fill="none" xmlns="http://www.w3.org/2000/svg">
<path d="M297.907 200.018C297.907 145.961 254.035 102.089 199.979 102.089C145.923 102.089 102.051 145.961 102.051 200.018C102.051 254.074 145.923 297.946 199.979 297.946C254.035 297.946 297.907 254.074 297.907 200.018Z" fill="#00007D"/>
<path d="M269.236 159.444C269.236 143.611 256.386 130.761 240.554 130.761C224.721 130.761 211.871 143.611 211.871 159.444C211.871 175.276 224.721 188.126 240.554 188.126C256.386 188.126 269.236 175.276 269.236 159.444Z" fill="white"/>
<path d="M326.584 102.089C326.584 86.2567 313.734 73.4067 297.901 73.4067C282.069 73.4067 269.219 86.2567 269.219 102.089C269.219 117.922 282.069 130.772 297.901 130.772C313.734 130.772 326.584 117.922 326.584 102.089Z" fill="#00007D"/>
<path d="M133.207 185.742H141.771V241.429H173.488V248.96H133.207V185.742Z" fill="white"/>
<path d="M188.938 202.87V233.467C188.938 235.82 189.301 237.743 190.028 239.234C191.369 241.988 193.869 243.365 197.53 243.365C202.782 243.365 206.359 240.955 208.259 236.135C209.293 233.553 209.81 230.01 209.81 225.506V202.87H217.556V248.96H210.24L210.326 242.16C209.34 243.91 208.115 245.388 206.651 246.593C203.751 249.003 200.232 250.208 196.095 250.208C189.647 250.208 185.256 248.013 182.92 243.623C181.653 241.271 181.02 238.13 181.02 234.199V202.87H188.938Z" fill="white"/>
<path d="M254.909 221.066C256.687 220.837 257.878 220.092 258.481 218.832C258.824 218.141 258.997 217.148 258.997 215.851C258.997 213.202 258.059 211.28 256.183 210.084C254.308 208.889 251.623 208.291 248.131 208.291C244.094 208.291 241.23 209.387 239.541 211.578C238.596 212.79 237.981 214.592 237.694 216.984H230.465C230.608 211.287 232.449 207.325 235.988 205.094C239.527 202.865 243.632 201.75 248.303 201.75C253.718 201.75 258.117 202.783 261.499 204.848C264.851 206.914 266.528 210.128 266.528 214.489V241.043C266.528 241.846 266.692 242.492 267.023 242.979C267.352 243.466 268.048 243.709 269.11 243.709C269.454 243.709 269.841 243.687 270.272 243.644C270.702 243.601 271.161 243.537 271.649 243.451V249.174C270.444 249.519 269.526 249.734 268.895 249.82C268.263 249.906 267.402 249.949 266.313 249.949C263.645 249.949 261.708 249.002 260.503 247.109C259.871 246.106 259.427 244.685 259.169 242.85C257.591 244.915 255.324 246.708 252.369 248.228C249.414 249.748 246.157 250.508 242.6 250.508C238.325 250.508 234.833 249.211 232.122 246.618C229.41 244.026 228.055 240.78 228.055 236.883C228.055 232.614 229.389 229.304 232.057 226.955C234.725 224.605 238.225 223.158 242.557 222.613L254.909 221.066ZM238.598 241.992C240.234 243.281 242.17 243.924 244.408 243.924C247.133 243.924 249.772 243.294 252.326 242.034C256.63 239.942 258.781 236.52 258.781 231.765V225.535C257.836 226.139 256.62 226.643 255.131 227.046C253.642 227.449 252.182 227.736 250.75 227.908L246.069 228.51C243.263 228.882 241.153 229.469 239.739 230.271C237.343 231.616 236.145 233.763 236.145 236.711C236.145 238.944 236.963 240.704 238.598 241.992Z" fill="white"/>
<path d="M204.531 327.997L204.428 325.06C208.06 324.934 211.72 324.648 215.308 324.209L215.664 327.125C211.992 327.574 208.246 327.867 204.531 327.997ZM193.363 327.906C189.653 327.716 185.912 327.362 182.244 326.853L182.648 323.943C186.232 324.44 189.888 324.786 193.513 324.972L193.363 327.906ZM226.682 325.288L226.072 322.414C229.619 321.661 233.174 320.742 236.637 319.682L237.497 322.491C233.951 323.576 230.313 324.517 226.682 325.288ZM171.258 324.833C167.644 324.004 164.021 323.003 160.491 321.858L161.397 319.064C164.846 320.182 168.385 321.16 171.915 321.97L171.258 324.833ZM248.025 318.755L246.921 316.033C250.276 314.674 253.615 313.148 256.844 311.497L258.181 314.113C254.876 315.803 251.458 317.365 248.025 318.755ZM150.021 317.946C146.607 316.497 143.214 314.877 139.936 313.132L141.317 310.539C144.519 312.243 147.834 313.826 151.169 315.242L150.021 317.946ZM267.894 308.6L266.334 306.111C269.404 304.186 272.427 302.102 275.321 299.917L277.091 302.262C274.13 304.498 271.036 306.63 267.894 308.6ZM130.311 307.456C127.203 305.435 124.144 303.252 121.217 300.965L123.026 298.65C125.886 300.885 128.875 303.019 131.912 304.993L130.311 307.456ZM285.704 295.15L283.737 292.968C286.431 290.54 289.05 287.965 291.522 285.314L293.67 287.318C291.141 290.03 288.461 292.665 285.704 295.15ZM112.722 293.71C110.008 291.181 107.371 288.502 104.886 285.748L107.068 283.78C109.496 286.472 112.072 289.089 114.725 291.561L112.722 293.71ZM300.929 278.826L298.615 277.016C300.85 274.158 302.986 271.17 304.962 268.133L307.424 269.736C305.402 272.843 303.217 275.902 300.929 278.826ZM97.7699 277.138C95.5311 274.177 93.3972 271.083 91.4277 267.944L93.9162 266.383C95.8408 269.45 97.926 272.473 100.113 275.366L97.7699 277.138ZM313.105 260.114L310.513 258.732C312.219 255.53 313.803 252.216 315.22 248.881L317.925 250.031C316.473 253.444 314.852 256.836 313.105 260.114ZM85.9103 258.234C84.2197 254.931 82.656 251.515 81.2621 248.08L83.9846 246.976C85.346 250.331 86.8737 253.669 88.5254 256.895L85.9103 258.234ZM321.841 239.563L319.047 238.655C320.166 235.21 321.146 231.671 321.959 228.138L324.822 228.797C323.99 232.414 322.987 236.036 321.841 239.563ZM77.5215 237.554C76.4342 234.007 75.4915 230.369 74.7198 226.74L77.5932 226.129C78.3473 229.674 79.2681 233.228 80.3303 236.693L77.5215 237.554ZM326.847 217.812L323.937 217.407C324.436 213.824 324.784 210.169 324.971 206.543L327.905 206.694C327.714 210.404 327.358 214.145 326.847 217.812ZM72.8767 215.724C72.4263 212.05 72.1312 208.305 72 204.591L74.9362 204.487C75.0641 208.116 75.3525 211.776 75.7926 215.366L72.8767 215.724ZM325.064 195.628C324.938 192.005 324.649 188.343 324.207 184.745L327.123 184.386C327.576 188.07 327.871 191.818 328 195.525L325.064 195.628ZM75.0189 193.571L72.0849 193.422C72.2729 189.712 72.6254 185.972 73.1328 182.304L76.043 182.706C75.5472 186.29 75.2026 189.946 75.0189 193.571ZM322.405 173.977C321.651 170.431 320.732 166.875 319.672 163.408L322.481 162.549C323.566 166.097 324.507 169.736 325.279 173.366L322.405 173.977ZM78.0106 171.973L75.1469 171.317C75.9751 167.7 76.9743 164.077 78.1169 160.548L80.9119 161.453C79.7958 164.901 78.8196 168.44 78.0106 171.973ZM316.028 153.117C314.669 149.754 313.146 146.412 311.5 143.183L314.118 141.849C315.802 145.154 317.361 148.575 318.752 152.016L316.028 153.117ZM84.7285 151.223L82.0236 150.076C83.4715 146.661 85.0896 143.268 86.8329 139.989L89.4269 141.368C87.7239 144.571 86.1429 147.887 84.7285 151.223ZM94.9679 131.961L92.504 130.361C94.5238 127.251 96.7064 124.19 98.9909 121.264L101.307 123.072C99.0742 125.932 96.9417 128.922 94.9679 131.961ZM108.392 114.767L106.241 112.765C108.769 110.05 111.446 107.412 114.2 104.926L116.169 107.106C113.478 109.536 110.862 112.113 108.392 114.767ZM124.579 100.148L122.806 97.8054C125.766 95.5657 128.858 93.4304 131.997 91.4588L133.56 93.9465C130.492 95.873 127.471 97.9595 124.579 100.148ZM268.159 95.0458L267.998 94.9419L269.597 92.4764L269.752 92.577L268.159 95.0458ZM258.585 89.4153C255.381 87.7179 252.064 86.1418 248.726 84.7304L249.87 82.0247C253.286 83.4688 256.682 85.082 259.961 86.8194L258.585 89.4153ZM143.044 88.5505L141.705 85.936C145.008 84.2432 148.423 82.6779 151.856 81.2832L152.962 84.0052C149.608 85.3677 146.271 86.897 143.044 88.5505ZM238.495 80.9227C235.045 79.8072 231.504 78.8307 227.971 78.0206L228.628 75.1572C232.244 75.9862 235.868 76.9857 239.399 78.1272L238.495 80.9227ZM163.243 80.3457L162.381 77.5372C165.925 76.4485 169.563 75.5042 173.193 74.7301L173.805 77.6032C170.26 78.3595 166.706 79.2822 163.243 80.3457ZM217.234 76.0465C213.642 75.5475 209.985 75.2007 206.365 75.0162L206.515 72.0822C210.22 72.271 213.962 72.6259 217.638 73.1369L217.234 76.0465ZM184.567 75.798L184.208 72.8818C187.881 72.4298 191.626 72.1331 195.341 72L195.446 74.9359C191.816 75.066 188.156 75.356 184.567 75.798Z" fill="#929292"/>
</svg>
