<svg width="400" height="400" viewBox="0 0 400 400" fill="none" xmlns="http://www.w3.org/2000/svg">
<path d="M307.803 268.36C293.874 268.012 283.079 269.406 274.025 273.236C271.413 274.28 267.234 274.281 266.886 277.588C268.279 278.982 268.453 281.246 269.672 283.16C271.763 286.641 275.418 291.344 278.726 293.782C282.382 296.567 286.039 299.353 289.869 301.791C296.66 305.97 304.321 308.407 310.937 312.586C314.769 315.022 318.597 318.158 322.428 320.769C324.344 322.161 325.562 324.425 328 325.296V324.774C326.781 323.206 326.433 320.943 325.215 319.202C323.475 317.461 321.732 315.893 319.991 314.152C314.942 307.362 308.674 301.442 301.883 296.567C296.312 292.737 284.123 287.513 281.86 281.071C281.86 281.071 281.685 280.897 281.512 280.723C285.342 280.375 289.869 278.982 293.526 277.937C299.446 276.369 304.843 276.718 310.937 275.152C313.723 274.455 316.509 273.584 319.294 272.714V271.147C316.162 268.012 313.897 263.834 310.589 260.874C301.709 253.212 291.958 245.726 281.86 239.458C276.462 235.976 269.497 233.712 263.752 230.753C261.663 229.706 258.18 229.185 256.962 227.444C253.827 223.613 252.086 218.565 249.823 214.037C244.775 204.46 239.898 193.841 235.545 183.742C232.413 176.951 230.497 170.161 226.666 163.893C208.733 134.294 189.232 116.36 159.284 98.7743C152.842 95.1184 145.182 93.5509 136.998 91.6361C132.646 91.4614 128.292 91.114 123.94 90.9393C121.154 89.7202 118.368 86.4128 115.93 84.8453C106.007 78.5766 80.4114 64.9971 73.0984 82.9305C68.3971 94.2479 80.0629 105.39 84.0673 111.137C87.0285 115.141 90.8581 119.668 92.9477 124.195C94.1667 127.153 94.514 130.289 95.733 133.423C98.5195 141.082 101.13 149.615 104.787 156.755C106.703 160.411 108.792 164.241 111.23 167.549C112.622 169.464 115.059 170.335 115.582 173.469C113.145 176.951 112.971 182.175 111.577 186.528C105.309 206.202 107.747 230.578 116.627 245.029C119.412 249.381 126.029 258.959 134.908 255.302C142.744 252.168 141.002 242.244 143.266 233.538C143.789 231.447 143.44 230.056 144.485 228.663C144.486 228.837 144.485 229.012 144.485 229.012C146.923 233.887 149.36 238.588 151.623 243.463C157.021 251.994 166.422 260.874 174.257 266.794C178.438 269.927 181.745 275.325 186.969 277.241V276.718H186.62C185.575 275.15 184.008 274.455 182.616 273.236C179.482 270.102 175.999 266.271 173.562 262.789C166.25 253.038 159.806 242.244 154.061 231.1C151.276 225.703 148.837 219.783 146.574 214.386C145.529 212.295 145.529 209.162 143.788 208.118C141.176 211.948 137.346 215.256 135.431 219.958C132.124 227.444 131.775 236.672 130.556 246.248C129.86 246.423 130.207 246.248 129.859 246.597C124.288 245.203 122.372 239.458 120.282 234.582C115.059 222.221 114.189 202.371 118.716 188.095C119.935 184.438 125.159 172.947 123.069 169.465C122.025 166.156 118.541 164.241 116.627 161.63C114.363 158.321 111.925 154.143 110.359 150.486C106.18 140.736 104.09 129.941 99.5637 120.19C97.4742 115.662 93.8182 110.962 90.8581 106.784C87.5506 102.083 83.8936 98.7743 81.2819 93.2025C80.4124 91.2877 79.1923 88.1539 80.585 86.0643C80.9334 84.6716 81.6292 84.1495 83.023 83.801C85.2862 81.8851 91.7286 84.3232 93.9918 85.3674C100.434 87.978 105.831 90.4171 111.229 94.073C113.666 95.8142 116.278 99.1228 119.412 99.9933H123.069C128.641 101.211 134.908 100.342 140.132 101.908C149.361 104.867 157.717 109.221 165.204 113.922C188.014 128.373 206.817 148.92 219.528 173.469C221.618 177.472 222.487 181.131 224.403 185.309C228.06 193.841 232.586 202.546 236.242 210.903C239.898 219.086 243.381 227.444 248.604 234.235C251.217 237.89 261.662 239.806 266.364 241.722C269.846 243.288 275.244 244.682 278.378 246.597C284.297 250.251 290.217 254.432 295.789 258.436C298.576 260.525 307.28 264.878 307.803 268.36Z" fill="#00546B"/>
<path d="M130.208 117.056C127.248 117.056 125.16 117.405 123.07 117.927C123.07 117.927 123.07 118.102 123.07 118.276H123.419C124.813 121.061 127.248 122.977 128.989 125.414C130.383 128.199 131.601 130.986 132.995 133.772C133.169 133.597 133.342 133.424 133.342 133.424C135.781 131.682 136.999 128.896 136.999 124.718C135.954 123.499 135.78 122.28 134.91 121.061C133.866 119.319 131.601 118.449 130.208 117.056Z" fill="#00546B"/>
</svg>
