<svg width="400" height="400" viewBox="0 0 400 400" fill="none" xmlns="http://www.w3.org/2000/svg">
<mask id="mask0_1414_68" style="mask-type:luminance" maskUnits="userSpaceOnUse" x="72" y="72" width="256" height="256">
<path d="M200 328C270.692 328 328 270.692 328 200C328 129.308 270.692 72 200 72C129.308 72 72 129.308 72 200C72 270.692 129.308 328 200 328Z" fill="white"/>
</mask>
<g mask="url(#mask0_1414_68)">
<path d="M200 328C270.692 328 328 270.692 328 200C328 129.308 270.692 72 200 72C129.308 72 72 129.308 72 200C72 270.692 129.308 328 200 328Z" fill="black"/>
<path d="M284.63 296.029L170.332 148.8H148.797V251.158H166.025V170.679L271.107 306.447C275.848 303.274 280.365 299.791 284.63 296.029Z" fill="url(#paint0_linear_1414_68)"/>
<path d="M252.621 148.8H235.555V251.2H252.621V148.8Z" fill="url(#paint1_linear_1414_68)"/>
</g>
<defs>
<linearGradient id="paint0_linear_1414_68" x1="7705.57" y1="9037.69" x2="12241.7" y2="14659.9" gradientUnits="userSpaceOnUse">
<stop stop-color="white"/>
<stop offset="1" stop-color="white" stop-opacity="0"/>
</linearGradient>
<linearGradient id="paint1_linear_1414_68" x1="1088.89" y1="148.8" x2="1060.3" y2="7668.7" gradientUnits="userSpaceOnUse">
<stop stop-color="white"/>
<stop offset="1" stop-color="white" stop-opacity="0"/>
</linearGradient>
</defs>
</svg>
