<svg width="400" height="400" viewBox="0 0 400 400" fill="none" xmlns="http://www.w3.org/2000/svg">
<path d="M200 344.464C196.025 344.464 192.315 343.404 188.87 341.549L153.623 320.613C148.323 317.698 150.973 316.638 152.563 316.108C159.718 313.723 161.043 313.193 168.464 308.952C169.259 308.422 170.319 308.687 171.114 309.217L198.145 325.383C199.205 325.913 200.53 325.913 201.325 325.383L307.064 264.166C308.124 263.636 308.654 262.576 308.654 261.251V139.081C308.654 137.756 308.124 136.696 307.064 136.166L201.325 75.2133C200.265 74.6832 198.94 74.6832 198.145 75.2133L92.4058 136.166C91.3458 136.696 90.8157 138.021 90.8157 139.081V261.251C90.8157 262.311 91.3458 263.636 92.4058 264.166L121.292 280.861C136.928 288.812 146.733 279.536 146.733 270.261V149.681C146.733 148.091 148.058 146.501 149.913 146.501H163.429C165.019 146.501 166.609 147.826 166.609 149.681V270.261C166.609 291.197 155.213 303.387 135.337 303.387C129.242 303.387 124.472 303.387 110.957 296.762L83.1304 280.861C76.2402 276.886 72 269.466 72 261.516V139.346C72 131.395 76.2402 123.975 83.1304 120L188.87 58.7826C195.495 55.0725 204.505 55.0725 211.13 58.7826L316.87 120C323.76 123.975 328 131.395 328 139.346V261.516C328 269.466 323.76 276.886 316.87 280.861L211.13 342.079C207.685 343.669 203.71 344.464 200 344.464ZM232.596 260.456C186.219 260.456 176.679 239.255 176.679 221.234C176.679 219.644 178.004 218.054 179.859 218.054H193.64C195.23 218.054 196.555 219.114 196.555 220.704C198.675 234.75 204.77 241.64 232.861 241.64C255.122 241.64 264.663 236.605 264.663 224.679C264.663 217.789 262.012 212.754 227.296 209.309C198.41 206.393 180.389 200.033 180.389 176.977C180.389 155.511 198.41 142.791 228.621 142.791C262.542 142.791 279.238 154.451 281.358 179.892C281.358 180.687 281.093 181.482 280.563 182.277C280.033 182.807 279.238 183.337 278.443 183.337H264.663C263.337 183.337 262.012 182.277 261.747 180.952C258.567 166.377 250.352 161.607 228.621 161.607C204.24 161.607 201.325 170.087 201.325 176.447C201.325 184.133 204.77 186.518 237.631 190.758C270.228 194.998 285.598 201.093 285.598 223.884C285.333 247.205 266.253 260.456 232.596 260.456Z" fill="#539E43"/>
</svg>
