<svg width="60" height="60" viewBox="0 0 60 60" fill="none" xmlns="http://www.w3.org/2000/svg">
<g clip-path="url(#clip0_1823_1888)">
<path d="M30 43.92C44.3594 43.92 56 37.8938 56 30.46C56 23.0262 44.3594 17 30 17C15.6406 17 4 23.0262 4 30.46C4 37.8938 15.6406 43.92 30 43.92Z" fill="url(#paint0_radial_1823_1888)"/>
<path d="M30 42.92C43.7985 42.92 54.9844 37.3415 54.9844 30.46C54.9844 23.5785 43.7985 18 30 18C16.2015 18 5.01562 23.5785 5.01562 30.46C5.01562 37.3415 16.2015 42.92 30 42.92Z" fill="#6181B6"/>
<path d="M35.0578 34.4995L36.2969 28.2195C36.5813 26.7995 36.3375 25.7395 35.6063 25.0795C34.8953 24.4395 33.6766 24.1195 31.8891 24.1195H29.7359L30.3453 20.9995C30.3656 20.8795 30.3453 20.7595 30.2641 20.6595C30.1828 20.5595 30.0813 20.5195 29.9594 20.5195H26.9938C26.7906 20.5195 26.6281 20.6595 26.5875 20.8395L25.2672 27.4995C25.1453 26.7395 24.8609 26.0995 24.3734 25.5795C23.5 24.5995 22.1391 24.0995 20.2906 24.0995H14.5828C14.3797 24.0995 14.2172 24.2395 14.1766 24.4195L11.5156 37.9395C11.4953 38.0595 11.5156 38.1795 11.5969 38.2795C11.6781 38.3795 11.7797 38.4195 11.9016 38.4195H14.8875C15.0906 38.4195 15.2531 38.2795 15.2938 38.0995L15.9438 34.8395H18.1578C19.3156 34.8395 20.3109 34.7195 21.0625 34.4795C21.8547 34.2195 22.5656 33.7995 23.1953 33.2195C23.7031 32.7595 24.1297 32.2395 24.4547 31.6795L23.9266 34.3795C23.9063 34.4995 23.9266 34.6195 24.0078 34.7195C24.0891 34.8195 24.1906 34.8595 24.3125 34.8595H27.2781C27.4813 34.8595 27.6438 34.7195 27.6844 34.5395L29.1469 27.1395H31.1781C32.0516 27.1395 32.2953 27.2995 32.3766 27.3795C32.4375 27.4395 32.5594 27.6795 32.4172 28.4195L31.2391 34.3995C31.2188 34.5195 31.2391 34.6395 31.3203 34.7395C31.4016 34.8395 31.5031 34.8795 31.625 34.8795H34.6719C34.8547 34.8195 35.0172 34.6795 35.0578 34.4995ZM21.3266 29.2995C21.1438 30.2395 20.7984 30.9195 20.2906 31.2995C19.7828 31.6795 18.95 31.8795 17.8531 31.8795H16.5328L17.4875 27.0395H19.1938C20.4531 27.0395 20.9609 27.2995 21.1641 27.5195C21.4281 27.8395 21.4891 28.4595 21.3266 29.2995Z" fill="white"/>
<path d="M47.7329 25.5796C46.8595 24.5996 45.4985 24.0996 43.6501 24.0996H37.9017C37.6985 24.0996 37.536 24.2396 37.4954 24.4196L34.8345 37.9196C34.8142 38.0396 34.8345 38.1596 34.9157 38.2596C34.997 38.3596 35.0985 38.3996 35.2204 38.3996H38.2063C38.4095 38.3996 38.572 38.2596 38.6126 38.0796L39.2626 34.8196H41.4767C42.6345 34.8196 43.6298 34.6996 44.3813 34.4596C45.1735 34.1996 45.8845 33.7796 46.5142 33.1996C47.0423 32.7196 47.4892 32.1796 47.8142 31.5996C48.1392 31.0196 48.3829 30.3796 48.5251 29.6796C48.8704 27.9396 48.6063 26.5796 47.7329 25.5796ZM44.6251 29.2996C44.4423 30.2396 44.097 30.9196 43.5892 31.2996C43.0813 31.6796 42.2485 31.8796 41.1517 31.8796H39.8313L40.786 27.0396H42.4923C43.7517 27.0396 44.2595 27.2996 44.4626 27.5196C44.747 27.8396 44.8079 28.4596 44.6251 29.2996Z" fill="white"/>
<path d="M19.1938 26.64C20.3313 26.64 21.0828 26.84 21.4688 27.26C21.8547 27.68 21.9359 28.38 21.7328 29.38C21.5297 30.42 21.1234 31.18 20.5344 31.62C19.9453 32.06 19.0516 32.28 17.8531 32.28H16.0453L17.1625 26.64H19.1938ZM11.9219 38H14.9078L15.6188 34.42H18.1781C19.3156 34.42 20.2297 34.3 20.9609 34.06C21.6922 33.82 22.3422 33.44 22.9516 32.88C23.4594 32.42 23.8656 31.92 24.1703 31.38C24.475 30.84 24.6984 30.24 24.8203 29.58C25.1453 27.98 24.9016 26.74 24.1094 25.84C23.3172 24.94 22.0578 24.5 20.3313 24.5H14.5828L11.9219 38Z" fill="#000004"/>
<path d="M27.014 20.9199H29.9796L29.2687 24.4999H31.9093C33.5749 24.4999 34.7124 24.7799 35.3421 25.3599C35.9718 25.9399 36.1546 26.8599 35.9108 28.1399L34.6718 34.4199H31.6655L32.8437 28.4399C32.9858 27.7599 32.9249 27.2999 32.7015 27.0599C32.478 26.8199 31.9702 26.6799 31.2187 26.6799H28.8421L27.3187 34.4199H24.353L27.014 20.9199Z" fill="#000004"/>
<path d="M42.4921 26.64C43.6296 26.64 44.3812 26.84 44.7671 27.26C45.153 27.68 45.2343 28.38 45.0312 29.38C44.828 30.42 44.4218 31.18 43.8327 31.62C43.2437 32.06 42.3499 32.28 41.1515 32.28H39.3437L40.4608 26.64H42.4921ZM35.2202 38H38.2062L38.9171 34.42H41.4765C42.614 34.42 43.528 34.3 44.2593 34.06C44.9905 33.82 45.6405 33.44 46.2499 32.88C46.7577 32.42 47.164 31.92 47.4687 31.38C47.7733 30.84 47.9968 30.24 48.1187 29.58C48.4437 27.98 48.1999 26.74 47.4077 25.84C46.6155 24.94 45.3562 24.5 43.6296 24.5H37.8812L35.2202 38Z" fill="#000004"/>
</g>
<defs>
<radialGradient id="paint0_radial_1823_1888" cx="0" cy="0" r="1" gradientUnits="userSpaceOnUse" gradientTransform="translate(19.6105 21.7335) scale(34.1443 33.619)">
<stop stop-color="white"/>
<stop offset="0.5" stop-color="#4C6B97"/>
<stop offset="1" stop-color="#231F20"/>
</radialGradient>
<clipPath id="clip0_1823_1888">
<rect width="52" height="27" fill="white" transform="translate(4 17)"/>
</clipPath>
</defs>
</svg>
