<svg width="60" height="60" viewBox="0 0 60 60" fill="none" xmlns="http://www.w3.org/2000/svg">
<g clip-path="url(#clip0_1823_1936)">
<path d="M30 55.9656C44.3594 55.9656 56 44.3703 56 30.0668C56 15.7633 44.3594 4.16797 30 4.16797C15.6406 4.16797 4 15.7633 4 30.0668C4 44.3703 15.6406 55.9656 30 55.9656Z" fill="#1A171B"/>
<path d="M41.3153 13.7388C38.6777 13.8304 36.3753 15.2783 34.6617 17.2817C32.7641 19.4779 31.5017 22.083 30.5921 24.7422C28.9649 23.4138 27.7097 21.6941 25.0993 20.9442C23.0817 20.3673 20.9625 20.6055 19.0137 22.0519C18.0905 22.7388 17.4545 23.7771 17.1521 24.7533C16.3689 27.2898 17.9753 29.5474 18.7049 30.3578L20.3001 32.0608C20.6289 32.3947 21.4209 33.2657 21.0337 34.5144C20.6153 35.8723 18.9721 36.7513 17.2865 36.2333C16.5337 36.0046 15.4521 35.446 15.6945 34.6594C15.7945 34.3375 16.0257 34.0968 16.1497 33.8187C16.2633 33.5797 16.3177 33.4004 16.3521 33.2952C16.6601 32.2935 16.2393 30.9906 15.1625 30.6599C14.1577 30.3531 13.1297 30.5961 12.7313 31.8847C12.2793 33.3486 12.9825 36.0054 16.7497 37.1625C21.1633 38.5132 24.8969 36.1193 25.4265 32.9971C25.7601 31.0416 24.8737 29.5888 23.2497 27.7201L21.9265 26.2626C21.1249 25.4649 20.8497 24.1055 21.6793 23.0607C22.3793 22.1794 23.3761 21.8033 25.0089 22.2455C27.3921 22.8902 28.4545 24.5374 30.2273 25.8658C29.4953 28.2572 29.0169 30.6575 28.5841 32.8099L28.3201 34.4148C27.0529 41.0353 26.0857 44.6707 23.5721 46.7578C23.0657 47.1164 22.3417 47.6535 21.2505 47.6909C20.6785 47.7085 20.4937 47.3164 20.4857 47.1459C20.4721 46.7458 20.8105 46.5625 21.0353 46.3824C21.3713 46.2 21.8793 45.8971 21.8449 44.9273C21.8081 43.7814 20.8553 42.7877 19.4777 42.8331C18.4457 42.8682 16.8729 43.8356 16.9321 45.6063C16.9937 47.4351 18.7049 48.8058 21.2849 48.7189C22.6641 48.6719 25.7441 48.1125 28.7793 44.5185C32.3121 40.3986 33.3001 35.6755 34.0433 32.2186L34.8729 27.6548C35.3337 27.7098 35.8265 27.7464 36.3625 27.7592C40.7625 27.8516 42.9633 25.5813 42.9961 23.9301C43.0177 22.9308 42.3377 21.9475 41.3857 21.9698C40.7041 21.9889 39.8481 22.4408 39.6425 23.3795C39.4417 24.3007 41.0425 25.1319 39.7913 25.9391C38.9025 26.5121 37.3089 26.9161 35.0649 26.5878L35.4729 24.3413C36.3057 20.0812 37.3329 14.8408 41.2297 14.7133C41.5137 14.699 42.5529 14.7261 42.5769 15.4106C42.5841 15.6393 42.5273 15.6975 42.2585 16.2211C41.9849 16.6291 41.8817 16.9765 41.8945 17.3757C41.9321 18.4635 42.7625 19.1783 43.9633 19.1353C45.5713 19.0835 46.0337 17.524 46.0073 16.7231C45.9425 14.8416 43.9513 13.6527 41.3153 13.7388Z" fill="white"/>
</g>
<defs>
<clipPath id="clip0_1823_1936">
<rect width="52" height="52" fill="white" transform="translate(4 4)"/>
</clipPath>
</defs>
</svg>
