<svg width="400" height="400" viewBox="0 0 400 400" fill="none" xmlns="http://www.w3.org/2000/svg">
<path d="M328 72H72V328H328V72Z" fill="#3178C6"/>
<path d="M222.518 272.475V300.095C227.01 302.397 232.323 304.123 238.456 305.274C244.589 306.425 251.053 307 257.849 307C264.471 307 270.763 306.367 276.723 305.101C282.683 303.835 287.91 301.749 292.401 298.844C296.893 295.938 300.449 292.14 303.07 287.45C305.69 282.761 307 276.964 307 270.059C307 265.053 306.251 260.665 304.754 256.896C303.257 253.127 301.097 249.775 298.275 246.841C295.454 243.906 292.07 241.274 288.126 238.943C284.181 236.613 279.732 234.412 274.779 232.341C271.151 230.844 267.898 229.392 265.018 227.982C262.139 226.572 259.691 225.134 257.676 223.666C255.66 222.199 254.105 220.645 253.011 219.005C251.917 217.365 251.37 215.51 251.37 213.438C251.37 211.539 251.859 209.828 252.838 208.303C253.817 206.778 255.2 205.469 256.985 204.376C258.77 203.282 260.958 202.434 263.55 201.829C266.141 201.225 269.021 200.923 272.188 200.923C274.492 200.923 276.925 201.096 279.487 201.441C282.05 201.786 284.627 202.318 287.219 203.038C289.81 203.757 292.329 204.663 294.777 205.757C297.224 206.85 299.485 208.116 301.558 209.554V183.747C297.354 182.136 292.761 180.942 287.78 180.165C282.799 179.388 277.083 179 270.633 179C264.068 179 257.849 179.705 251.975 181.115C246.101 182.524 240.932 184.725 236.469 187.717C232.006 190.71 228.479 194.522 225.887 199.154C223.296 203.786 222 209.324 222 215.769C222 223.997 224.375 231.017 229.127 236.829C233.878 242.64 241.09 247.56 250.765 251.588C254.566 253.142 258.108 254.666 261.39 256.163C264.673 257.659 267.509 259.212 269.899 260.823C272.289 262.434 274.175 264.189 275.557 266.088C276.939 267.987 277.63 270.145 277.63 272.562C277.63 274.345 277.198 276 276.334 277.525C275.471 279.049 274.16 280.373 272.404 281.495C270.648 282.617 268.459 283.494 265.839 284.127C263.219 284.76 260.152 285.077 256.639 285.077C250.65 285.077 244.719 284.027 238.845 281.926C232.97 279.826 227.528 276.676 222.518 272.475ZM176.482 203.742H212V181H113V203.742H148.345V305H176.482V203.742Z" fill="white"/>
</svg>
