<svg width="538" height="538" viewBox="0 0 538 538" fill="none" xmlns="http://www.w3.org/2000/svg">
<path d="M269 0C269 109.569 229.535 158.46 167.582 139.397C141.329 131.319 111.038 111.038 78 78C105.475 105.475 126.149 135.952 140.023 167.945C148.368 187.189 154.253 206.982 157.677 227C158.87 233.977 159.765 240.982 160.36 248C161.547 261.982 161.547 276.018 160.36 290H202.36H335.64C336.235 297.018 337.13 304.023 338.323 311C340.414 323.225 343.423 335.366 347.35 347.35C296.078 330.55 241.922 330.55 190.65 347.35C194.577 335.366 197.586 323.225 199.677 311H157.677C154.253 331.018 148.368 350.811 140.023 370.055C126.149 402.048 105.475 432.525 78 460C105.475 432.525 135.952 411.851 167.945 397.977C233.212 369.674 304.788 369.674 370.055 397.977C402.048 411.851 432.525 432.525 460 460C432.525 432.525 411.851 402.048 397.977 370.055C389.632 350.811 383.747 331.018 380.323 311C379.13 304.023 378.235 297.018 377.64 290C376.453 276.018 376.453 261.982 377.64 248H335.64H202.36C201.765 240.982 200.87 233.977 199.677 227C197.586 214.775 194.577 202.634 190.65 190.65C241.922 207.45 296.078 207.45 347.35 190.65C343.423 202.634 340.414 214.775 338.323 227H380.323C383.747 206.982 389.632 187.189 397.977 167.945C411.851 135.952 432.525 105.475 460 78C426.963 111.037 396.671 131.318 370.418 139.397C308.465 158.46 269 109.569 269 0Z" fill="white"/>
<path d="M118.045 244.57C82.9693 260.365 43.1279 269.001 0 269.001C43.1279 269.001 82.9693 277.638 118.045 293.432C119.652 277.173 119.652 260.829 118.045 244.57Z" fill="white"/>
<path d="M293.431 419.956C277.172 418.35 260.828 418.35 244.569 419.956C260.363 455.032 269 494.873 269 538.001C269 494.873 277.637 455.032 293.431 419.956Z" fill="white"/>
<path d="M419.955 244.57C418.348 260.829 418.348 277.173 419.955 293.432C455.031 277.638 494.872 269.001 538 269.001C494.872 269.001 455.031 260.365 419.955 244.57Z" fill="white"/>
</svg>
