<svg width="537" height="218" viewBox="0 0 537 218" fill="none" xmlns="http://www.w3.org/2000/svg">
<path d="M155.2 209.2C145.1 209.2 137.2 201 137.2 190.7C137.2 180.3 145.1 172.2 155.2 172.2C160.3 172.2 165.6 174.7 169.2 178.9L174.2 172.4C169.3 167.4 162.2 164.3 155 164.3C140.1 164.3 128.5 175.8 128.5 190.7C128.5 205.8 140 217.4 154.7 217.4C161.8 217.4 169.1 214 174.2 208.8L169.2 202.9C165.4 206.8 160.2 209.2 155.2 209.2Z" fill="black"/>
<path d="M207.3 164.6L185 217.1H193.9L198.7 205.2H224.1L228.9 217.1H238L216 164.6H207.3ZM201.9 197.4L211.4 174.1L220.9 197.4H201.9Z" fill="black"/>
<path d="M280.601 199.5L263.901 164.6H253.801V217.1H261.801V177.9L277.801 211.6H283.301L299.201 177.9L299.301 217.1H307.101V164.6H297.101L280.601 199.5Z" fill="black"/>
<path d="M349.6 164.6H329.5V217.1H338V201.3H349.6C362.3 201.3 369.6 194.4 369.6 182.5C369.6 171.1 362.3 164.6 349.6 164.6ZM349.3 193.3H338.1V172.5H349.3C357.1 172.5 361.5 175.8 361.5 182.7C361.4 189.9 357.1 193.3 349.3 193.3Z" fill="black"/>
<path d="M421.402 195.3C421.402 204.2 416.302 209.5 408.102 209.5C399.802 209.5 394.602 204.2 394.602 195.3V164.5H386.102V195.3C386.102 209 394.502 217.4 408.102 217.4C421.702 217.4 430.002 209 430.002 195.3V164.5H421.502V195.3H421.402Z" fill="black"/>
<path d="M458.901 178C458.901 174.5 462.101 172.5 467.101 172.5C470.901 172.5 476.401 173.9 481.901 177.4L485.401 169.6C480.701 166.4 474.301 164.2 467.701 164.2C456.701 164.2 449.301 169.8 449.301 178.8C449.301 197.5 476.501 191 476.501 202.7C476.501 206.7 473.001 209.1 467.101 209.1C461.701 209.1 455.201 206.4 450.001 201.4L446.301 209.1C451.501 214 459.001 217.4 466.901 217.4C478.001 217.4 485.901 211.6 485.901 202.2C486.101 183.3 458.901 189.5 458.901 178Z" fill="black"/>
<path d="M341.001 131.8C377.501 131.8 407.201 102.3 407.201 65.9C407.201 29.5 377.601 0 341.001 0C304.401 0 274.801 29.5 274.801 65.9C274.801 102.3 304.501 131.8 341.001 131.8ZM341.001 31.5C360.101 31.5 375.701 46.9 375.701 66C375.701 85.1 360.201 100.5 341.001 100.5C321.901 100.5 306.301 85.1 306.301 66C306.301 46.9 321.901 31.5 341.001 31.5Z" fill="black"/>
<path d="M129 131.8H160.5V67.7996C160.5 48.3996 176 32.5996 195.2 32.5996C214.3 32.5996 229.9 48.3996 229.9 67.7996V131.8H261.4V67.7996C261.4 30.6996 231.8 0.599609 195.2 0.599609C158.7 0.599609 129 30.6996 129 67.7996V131.8Z" fill="black"/>
<path d="M57.6 68.7002C57.6 64.3002 56.8 60.1002 55.3 56.3002L34 0.700195H0L37.8 99.0002C49.5 94.2002 57.6 82.6002 57.6 68.7002Z" fill="black"/>
<path d="M486.002 131.8L536.302 0.599609H502.402L452.102 131.8H486.002Z" fill="black"/>
<path d="M459.301 68.5996C459.301 64.1996 458.501 59.9996 457.001 56.1996L435.701 0.599609H401.801L439.601 98.9996C451.201 94.1996 459.301 82.4996 459.301 68.5996Z" fill="black"/>
<path d="M100.702 0.599609L17.6016 217.1H51.5016L134.602 0.599609H100.702Z" fill="black"/>
</svg>
