<svg width="3840" height="2160" viewBox="0 0 3840 2160" fill="none" xmlns="http://www.w3.org/2000/svg">
<rect width="3840" height="2160" fill="black"/>
<g filter="url(#filter0_f_1840_2)">
<path d="M1920.5 830C1920.5 932.033 1883.75 977.562 1826.06 959.81C1801.61 952.287 1773.4 933.401 1742.64 902.636C1768.22 928.221 1787.47 956.602 1800.39 986.394C1808.16 1004.32 1813.64 1022.75 1816.83 1041.39C1817.94 1047.89 1818.78 1054.41 1819.33 1060.94C1820.44 1073.96 1820.44 1087.03 1819.33 1100.06H1858.44H1982.56C1983.11 1106.59 1983.94 1113.11 1985.06 1119.61C1987 1131 1989.8 1142.3 1993.46 1153.46C1945.72 1137.82 1895.28 1137.82 1847.54 1153.46C1851.2 1142.3 1854 1131 1855.94 1119.61H1816.83C1813.64 1138.25 1808.16 1156.68 1800.39 1174.6C1787.47 1204.4 1768.22 1232.78 1742.64 1258.36C1768.22 1232.78 1796.6 1213.53 1826.39 1200.61C1887.17 1174.25 1953.83 1174.25 2014.6 1200.61C2044.4 1213.53 2072.78 1232.78 2098.36 1258.36C2072.78 1232.78 2053.53 1204.4 2040.61 1174.6C2032.84 1156.68 2027.36 1138.25 2024.17 1119.61C2023.06 1113.11 2022.22 1106.59 2021.67 1100.06C2020.56 1087.03 2020.56 1073.96 2021.67 1060.94H1982.56H1858.44C1857.89 1054.41 1857.06 1047.89 1855.94 1041.39C1854 1030 1851.2 1018.7 1847.54 1007.54C1895.28 1023.18 1945.72 1023.18 1993.46 1007.54C1989.8 1018.7 1987 1030 1985.06 1041.39H2024.17C2027.36 1022.75 2032.84 1004.32 2040.61 986.394C2053.53 956.602 2072.78 928.221 2098.36 902.636C2067.6 933.401 2039.39 952.287 2014.94 959.81C1957.25 977.562 1920.5 932.033 1920.5 830Z" fill="white" fill-opacity="0.55"/>
<path d="M1779.93 1057.75C1747.26 1072.46 1710.16 1080.5 1670 1080.5C1710.16 1080.5 1747.26 1088.54 1779.93 1103.25C1781.42 1088.11 1781.42 1072.89 1779.93 1057.75Z" fill="white" fill-opacity="0.55"/>
<path d="M1943.25 1221.07C1928.11 1219.58 1912.89 1219.58 1897.75 1221.07C1912.46 1253.74 1920.5 1290.84 1920.5 1331C1920.5 1290.84 1928.54 1253.74 1943.25 1221.07Z" fill="white" fill-opacity="0.55"/>
<path d="M2061.07 1057.75C2059.58 1072.89 2059.58 1088.11 2061.07 1103.25C2093.74 1088.54 2130.84 1080.5 2171 1080.5C2130.84 1080.5 2093.74 1072.46 2061.07 1057.75Z" fill="white" fill-opacity="0.55"/>
</g>
<path d="M1920.5 830C1920.5 932.033 1883.75 977.562 1826.06 959.81C1801.61 952.287 1773.4 933.401 1742.64 902.636C1768.22 928.221 1787.47 956.602 1800.39 986.394C1808.16 1004.32 1813.64 1022.75 1816.83 1041.39C1817.94 1047.89 1818.78 1054.41 1819.33 1060.94C1820.44 1073.96 1820.44 1087.03 1819.33 1100.06H1858.44H1982.56C1983.11 1106.59 1983.94 1113.11 1985.06 1119.61C1987 1131 1989.8 1142.3 1993.46 1153.46C1945.72 1137.82 1895.28 1137.82 1847.54 1153.46C1851.2 1142.3 1854 1131 1855.94 1119.61H1816.83C1813.64 1138.25 1808.16 1156.68 1800.39 1174.6C1787.47 1204.4 1768.22 1232.78 1742.64 1258.36C1768.22 1232.78 1796.6 1213.53 1826.39 1200.61C1887.17 1174.25 1953.83 1174.25 2014.6 1200.61C2044.4 1213.53 2072.78 1232.78 2098.36 1258.36C2072.78 1232.78 2053.53 1204.4 2040.61 1174.6C2032.84 1156.68 2027.36 1138.25 2024.17 1119.61C2023.06 1113.11 2022.22 1106.59 2021.67 1100.06C2020.56 1087.03 2020.56 1073.96 2021.67 1060.94H1982.56H1858.44C1857.89 1054.41 1857.06 1047.89 1855.94 1041.39C1854 1030 1851.2 1018.7 1847.54 1007.54C1895.28 1023.18 1945.72 1023.18 1993.46 1007.54C1989.8 1018.7 1987 1030 1985.06 1041.39H2024.17C2027.36 1022.75 2032.84 1004.32 2040.61 986.394C2053.53 956.602 2072.78 928.221 2098.36 902.636C2067.6 933.401 2039.39 952.287 2014.94 959.81C1957.25 977.562 1920.5 932.033 1920.5 830Z" fill="white"/>
<path d="M1779.93 1057.75C1747.26 1072.46 1710.16 1080.5 1670 1080.5C1710.16 1080.5 1747.26 1088.54 1779.93 1103.25C1781.42 1088.11 1781.42 1072.89 1779.93 1057.75Z" fill="white"/>
<path d="M1943.25 1221.07C1928.11 1219.58 1912.89 1219.58 1897.75 1221.07C1912.46 1253.74 1920.5 1290.84 1920.5 1331C1920.5 1290.84 1928.54 1253.74 1943.25 1221.07Z" fill="white"/>
<path d="M2061.07 1057.75C2059.58 1072.89 2059.58 1088.11 2061.07 1103.25C2093.74 1088.54 2130.84 1080.5 2171 1080.5C2130.84 1080.5 2093.74 1072.46 2061.07 1057.75Z" fill="white"/>
<defs>
<filter id="filter0_f_1840_2" x="1499.5" y="659.5" width="841.999" height="842" filterUnits="userSpaceOnUse" color-interpolation-filters="sRGB">
<feFlood flood-opacity="0" result="BackgroundImageFix"/>
<feBlend mode="normal" in="SourceGraphic" in2="BackgroundImageFix" result="shape"/>
<feGaussianBlur stdDeviation="85.25" result="effect1_foregroundBlur_1840_2"/>
</filter>
</defs>
</svg>
