<svg width="400" height="400" viewBox="0 0 400 400" fill="none" xmlns="http://www.w3.org/2000/svg">
<path d="M113.25 82.6665V82.834L72 107.542V298.625L113.563 273.75H309.187V96.2921C309.187 88.8041 303.029 82.6665 295.541 82.6665H113.25ZM193.312 125.438H228.521L260.354 231.584H232.75L226.688 208.229H194.854L188.771 231.292H163.001L193.312 125.438ZM319.854 125.729V284.417H116.501L94.4384 297.625V302.583C94.4384 310.071 100.618 316.209 108.106 316.209H328V125.729H319.854ZM210.313 142.708L199.709 188.834H221.541L210.313 142.708Z" fill="#E51050"/>
<path fill-rule="evenodd" clip-rule="evenodd" d="M193.312 125.438H228.521L260.354 231.584H232.75L226.688 208.229H194.854L188.771 231.292H163.001L193.312 125.438ZM199.709 188.834L210.313 142.708L221.541 188.834H199.709Z" fill="white"/>
</svg>
