<svg width="400" height="400" viewBox="0 0 400 400" fill="none" xmlns="http://www.w3.org/2000/svg">
<path d="M279.375 248.754C269.032 259.306 254.565 265.273 238.894 265.294C223.213 265.326 208.736 259.401 198.393 248.88C193.337 243.751 189.631 237.867 187.328 231.576C185.077 225.4 184.219 218.794 184.795 212.252C185.35 205.866 187.234 199.659 190.343 194.048C193.368 188.562 197.524 183.611 202.654 179.423C212.703 171.227 225.495 166.799 238.894 166.778C252.294 166.757 265.075 171.164 275.135 179.319C280.254 183.496 284.41 188.426 287.425 193.901C290.534 199.512 292.429 205.709 292.984 212.095C293.559 218.648 292.691 225.243 290.44 231.43C288.137 237.71 284.421 243.604 279.375 248.754Z" fill="white"/>
<path d="M205.458 212.922C205.929 204.39 210.116 196.864 216.418 191.536C222.605 186.291 230.937 183.098 240.013 183.098C249.1 183.109 257.422 186.301 263.609 191.536C269.911 196.874 274.098 204.39 274.579 212.922C275.061 221.694 271.533 229.849 265.346 235.889C259.045 242.034 250.063 245.897 240.013 245.897C229.964 245.897 220.972 242.034 214.67 235.889C208.494 229.849 204.976 221.694 205.458 212.922Z" fill="#005385"/>
<path d="M150.406 230.195C150.469 233.523 151.537 240.014 153.128 245.091C156.488 255.821 162.183 265.755 170.118 274.506C178.262 283.499 188.269 290.722 199.847 295.841C212.022 301.232 225.201 303.985 238.883 303.953C252.565 303.932 265.745 301.137 277.909 295.704C289.476 290.523 299.484 283.279 307.617 274.266C315.542 265.472 321.226 255.528 324.586 244.798C326.261 239.448 327.34 233.932 327.779 228.352C328.198 222.909 328.02 217.423 327.256 212.011C325.748 201.396 322.074 191.441 316.421 182.365C311.239 174.033 304.582 166.726 296.657 160.57L296.668 160.56L216.712 99.1745C216.649 99.1222 216.575 99.0594 216.513 99.007C211.247 94.9872 202.433 94.9977 196.665 99.0384C190.824 103.121 190.164 109.873 195.346 114.134L195.325 114.144L228.677 141.278L126.999 141.382H126.863C118.468 141.393 110.386 146.909 108.784 153.871C107.151 160.968 112.857 166.851 121.598 166.893L121.587 166.925L173.122 166.82L81.1589 237.407C81.0437 237.501 80.9181 237.585 80.8134 237.669C72.1457 244.306 69.3403 255.36 74.7942 262.353C80.3423 269.461 92.1295 269.471 100.902 262.384L151.086 221.317C151.086 221.317 150.354 226.866 150.406 230.195ZM279.374 248.755C269.032 259.307 254.565 265.273 238.894 265.294C223.212 265.326 208.735 259.401 198.392 248.88C193.336 243.751 189.63 237.868 187.327 231.576C185.077 225.4 184.218 218.795 184.794 212.252C185.349 205.866 187.233 199.659 190.342 194.048C193.367 188.562 197.523 183.611 202.653 179.424C212.702 171.227 225.494 166.799 238.894 166.778C252.293 166.757 265.075 171.164 275.135 179.319C280.254 183.496 284.409 188.426 287.424 193.901C290.533 199.512 292.428 205.709 292.983 212.095C293.559 218.648 292.69 225.243 290.439 231.43C288.136 237.711 284.42 243.604 279.374 248.755Z" fill="#FF7021"/>
</svg>
