<svg width="400" height="400" viewBox="0 0 400 400" fill="none" xmlns="http://www.w3.org/2000/svg">
<path d="M200.332 200C200.332 176.436 219.434 157.333 242.999 157.333C266.562 157.333 285.665 176.436 285.665 200C285.665 223.565 266.562 242.667 242.999 242.667C219.434 242.667 200.332 223.565 200.332 200Z" fill="#1ABCFE"/>
<path d="M115 285.333C115 261.769 134.102 242.667 157.667 242.667H200.333V285.333C200.333 308.898 181.231 328 157.667 328C134.102 328 115 308.898 115 285.333Z" fill="#0ACF83"/>
<path d="M200.332 72.0005V157.333H242.999C266.563 157.333 285.665 138.231 285.665 114.667C285.665 91.1022 266.563 72.0005 242.999 72.0005H200.332Z" fill="#FF7262"/>
<path d="M115 114.667C115 138.231 134.102 157.333 157.667 157.333H200.333V72H157.667C134.102 72 115 91.1029 115 114.667Z" fill="#F24E1E"/>
<path d="M115 200C115 223.565 134.102 242.667 157.667 242.667H200.333V157.333H157.667C134.102 157.333 115 176.436 115 200Z" fill="#A259FF"/>
</svg>
