<svg width="400" height="400" viewBox="0 0 400 400" fill="none" xmlns="http://www.w3.org/2000/svg">
<path d="M132.127 65.0678C133.973 65.0608 135.82 65.0505 137.666 65.0373C142.648 65.0114 147.628 65.032 152.609 65.0629C157.834 65.0888 163.06 65.0766 168.285 65.0701C177.051 65.065 185.817 65.0901 194.584 65.1334C204.713 65.1831 214.84 65.1862 224.969 65.1644C234.731 65.1442 244.492 65.1558 254.253 65.1822C258.401 65.1929 262.548 65.1928 266.696 65.1839C271.577 65.175 276.457 65.1939 281.338 65.2342C283.127 65.2445 284.917 65.2454 286.706 65.2361C289.152 65.225 291.594 65.2484 294.04 65.2804C295.098 65.2636 295.098 65.2636 296.178 65.2465C301.08 65.3631 303.576 66.8437 307.137 70.181C310.695 74.1126 310.54 78.3928 310.465 83.444C310.463 84.1203 310.46 84.7966 310.457 85.4934C310.447 87.6401 310.424 89.7865 310.4 91.9331C310.391 93.3941 310.382 94.8551 310.374 96.3161C310.356 99.8859 310.319 103.455 310.283 107.025C316.129 107.025 321.975 107.025 327.997 107.025C327.997 182.094 327.997 257.164 327.997 334.508C272.993 334.595 272.993 334.595 216.878 334.683C205.287 334.708 193.697 334.734 181.755 334.76C167.632 334.773 167.632 334.773 161.027 334.775C156.4 334.778 151.774 334.788 147.148 334.803C141.252 334.822 135.356 334.828 129.46 334.824C127.293 334.825 125.126 334.831 122.959 334.841C120.038 334.855 117.117 334.852 114.195 334.844C112.916 334.857 112.916 334.857 111.61 334.869C107.141 334.837 104.125 334.641 100.514 331.711C95.7036 325.766 96.2237 319.499 96.2167 312.107C96.2028 310.841 96.1872 309.576 96.17 308.31C96.1295 304.998 96.1107 301.686 96.0966 298.374C96.0783 294.986 96.0392 291.599 96.0019 288.211C95.9319 281.579 95.8849 274.947 95.8526 268.314C94.3347 269.275 94.3347 269.275 92.7861 270.255C91.4387 271.104 90.0913 271.952 88.7437 272.801C88.0791 273.222 87.4145 273.643 86.7298 274.077C86.0748 274.489 85.4198 274.901 84.745 275.325C84.1493 275.701 83.5537 276.077 82.94 276.464C80.466 277.912 77.9094 279.161 75.3418 280.434C74.7307 255.79 74.271 231.147 73.9892 206.497C73.8549 195.05 73.6719 183.607 73.3725 172.163C73.1114 162.182 72.9437 152.205 72.8856 142.221C72.8517 136.937 72.7727 131.663 72.5817 126.382C71.4334 93.3634 71.4334 93.3634 77.8333 86.056C83.6121 80.5811 90.7254 77.5686 98.1125 74.8609C101.558 73.4149 104.18 71.6198 107.2 69.436C115.113 64.4118 123.056 64.9683 132.127 65.0678Z" fill="#FE6B00"/>
<path d="M310.285 107.02C316.13 107.02 321.976 107.02 327.999 107.02C327.999 182.089 327.999 257.159 327.999 334.503C272.994 334.59 272.994 334.59 216.879 334.678C205.289 334.703 193.698 334.729 181.757 334.755C167.634 334.768 167.634 334.768 161.028 334.77C156.402 334.773 151.775 334.783 147.149 334.798C141.253 334.818 135.357 334.823 129.462 334.819C127.294 334.82 125.127 334.826 122.96 334.837C120.039 334.85 117.118 334.847 114.197 334.84C113.344 334.848 112.49 334.856 111.611 334.864C107.144 334.833 104.125 334.637 100.515 331.706C93.7935 323.298 95.6845 310.499 95.5318 300.208C95.4862 297.476 95.3891 294.753 95.245 292.025C95.0696 288.703 94.9843 285.39 94.9603 282.064C94.9261 280.207 94.806 278.353 94.6836 276.5C94.7262 271.904 95.03 268.253 98.2969 264.889C109.804 255.722 120.057 253.651 134.398 253.987C136.32 253.99 138.242 253.988 140.165 253.982C145.325 253.979 150.483 254.044 155.642 254.123C161.056 254.193 166.47 254.199 171.884 254.212C182.11 254.247 192.334 254.339 202.56 254.451C214.212 254.577 225.864 254.638 237.517 254.694C261.463 254.811 285.407 255.007 309.352 255.257C309.351 254.12 309.351 254.12 309.35 252.959C309.329 234.535 309.314 216.111 309.304 197.687C309.299 188.777 309.293 179.868 309.282 170.958C309.273 163.195 309.267 155.433 309.265 147.67C309.263 143.557 309.261 139.444 309.254 135.331C309.248 131.464 309.246 127.598 309.247 123.731C309.247 122.308 309.245 120.885 309.241 119.461C309.237 117.526 309.238 115.592 309.24 113.657C309.239 112.029 309.239 112.029 309.238 110.368C309.352 107.952 309.352 107.952 310.285 107.02Z" fill="#923B00"/>
<path d="M116.363 66.001C116.799 90.4832 117.128 114.965 117.329 139.45C117.425 150.82 117.556 162.187 117.77 173.556C117.956 183.467 118.076 193.377 118.118 203.29C118.142 208.538 118.199 213.781 118.335 219.027C119.131 250.969 119.131 250.969 114.564 258.048C110.291 262.143 105.662 264.045 100.037 265.631C96.838 266.757 94.5156 268.562 91.9168 270.7C89.0995 272.978 85.9751 274.752 82.8585 276.586C81.9202 277.148 81.9202 277.148 80.9629 277.722C76.4056 280.432 76.4056 280.432 75.3418 280.432C74.7307 255.788 74.271 231.145 73.9892 206.495C73.8549 195.048 73.6719 183.605 73.3725 172.161C73.1114 162.18 72.9437 152.203 72.8856 142.218C72.8517 136.934 72.7727 131.66 72.5817 126.38C71.4334 93.361 71.4334 93.361 77.8333 86.0536C83.6017 80.5886 90.6918 77.6004 98.051 74.8622C102.787 72.9057 106.859 70.2518 111.122 67.4328C113.566 66.001 113.566 66.001 116.363 66.001Z" fill="#FE9346"/>
<path d="M184.41 107.95C206.562 107.95 228.713 107.95 251.536 107.95C251.536 114.103 251.536 120.257 251.536 126.596C237.999 126.596 224.462 126.596 210.515 126.596C210.515 134.903 210.515 143.21 210.515 151.769C221.898 151.769 233.282 151.769 245.01 151.769C245.01 157.922 245.01 164.075 245.01 170.415C233.627 170.415 222.243 170.415 210.515 170.415C210.515 184.26 210.515 198.104 210.515 212.369C201.9 212.369 193.286 212.369 184.41 212.369C184.41 177.911 184.41 143.452 184.41 107.95Z" fill="#FEFCFB"/>
<path d="M254.703 273.868C258.593 276.132 260.65 278.268 262.741 282.302C263.299 285.997 263.173 289.699 263.149 293.432C263.177 294.931 263.177 294.931 263.205 296.46C263.202 302.271 262.974 305.896 259.012 310.272C253.397 314.148 248.981 314.644 242.23 314.001C238.986 313.071 236.648 311.58 234.626 308.777C231.689 303.341 231.41 298.544 231.509 292.441C231.494 291.543 231.48 290.646 231.465 289.721C231.495 284.299 231.995 280.947 235.704 276.709C241.343 272.335 247.919 271.15 254.703 273.868Z" fill="#F8F4F0"/>
<path d="M218.751 273.615C222.378 275.791 225.016 277.989 226.21 282.122C226.268 282.795 226.325 283.468 226.385 284.161C224.871 284.237 223.355 284.291 221.84 284.336C220.996 284.369 220.152 284.401 219.283 284.435C218.184 284.299 218.184 284.299 217.062 284.161C216.446 283.238 215.831 282.315 215.197 281.365C211.934 280.976 211.934 280.976 208.671 281.365C206.531 283.505 206.505 284.169 206.224 287.075C206.108 288.267 205.993 289.459 205.874 290.688C206.489 290.688 207.105 290.688 207.739 290.688C207.739 290.072 207.739 289.457 207.739 288.823C211.173 287.106 215.169 287.553 218.926 287.891C221.665 289.114 221.665 289.114 223.588 290.688C224.081 291.06 224.573 291.433 225.081 291.817C227.962 295.503 226.868 301.188 226.385 305.605C224.779 309.186 223.421 310.624 220.325 312.946C214.361 314.863 208.311 315.17 202.611 312.422C201.842 311.711 201.073 310.999 200.28 310.266C199.626 309.692 198.973 309.117 198.299 308.525C195.532 303.902 196.012 299.291 196.085 294.009C196.07 292.965 196.056 291.921 196.041 290.846C196.069 284.944 196.225 281.131 200.28 276.703C206.089 272.288 211.717 271.895 218.751 273.615Z" fill="#FAF6F4"/>
<path d="M183.89 273.932C187.057 275.854 188.869 277.319 190.951 280.443C191.417 283.59 191.417 283.59 190.951 286.969C189.251 288.951 187.538 290.132 185.357 291.631C185.828 291.937 186.299 292.244 186.785 292.56C191.589 296.077 191.589 296.077 192.415 299.301C192.515 303.587 192.108 307.072 189.086 310.277C183.305 314.057 177.232 315.04 170.44 314.006C165.87 311.846 163.588 309.055 161.117 304.683C161.117 304.068 161.117 303.453 161.117 302.819C162.631 302.743 164.147 302.689 165.662 302.644C166.506 302.611 167.35 302.579 168.219 302.545C169.318 302.681 169.318 302.681 170.44 302.819C171.056 303.742 171.671 304.665 172.305 305.616C174.862 306.055 177.149 305.782 179.763 305.616C181.073 304.518 181.073 304.518 180.812 301.42C181.073 298.322 181.073 298.322 179.763 297.225C178.507 297.01 177.243 296.841 175.976 296.7C174.764 296.566 173.553 296.431 172.305 296.292C172.305 293.831 172.305 291.37 172.305 288.834C173.891 288.632 173.891 288.632 175.51 288.426C178.652 288.264 178.652 288.264 179.763 286.969C179.801 285.105 179.803 283.24 179.763 281.376C176.578 281.142 176.578 281.142 173.237 281.376C172.314 282.76 172.314 282.76 171.373 284.172C169.151 284.446 169.151 284.446 166.594 284.347C165.746 284.322 164.898 284.297 164.023 284.271C163.372 284.238 162.721 284.206 162.049 284.172C162.437 279.652 164.263 277.758 167.643 274.849C172.495 271.904 178.682 271.751 183.89 273.932Z" fill="#F9F4F1"/>
<path d="M247.347 280.199C250.611 280.432 250.611 280.432 252.475 282.296C252.716 284.533 252.716 284.533 252.723 287.308C252.725 288.303 252.728 289.298 252.73 290.323C252.723 291.366 252.716 292.409 252.708 293.484C252.715 294.527 252.723 295.57 252.73 296.645C252.728 297.64 252.725 298.635 252.723 299.661C252.721 300.576 252.719 301.492 252.716 302.436C252.475 304.672 252.475 304.672 250.611 306.536C247.347 306.828 247.347 306.828 244.084 306.536C242.024 303.445 241.981 302.443 241.972 298.841C241.97 297.891 241.967 296.941 241.965 295.962C241.972 294.971 241.979 293.981 241.987 292.96C241.979 291.965 241.972 290.971 241.965 289.946C241.967 288.997 241.97 288.048 241.972 287.071C241.974 286.2 241.976 285.329 241.979 284.432C242.402 280.685 243.741 280.456 247.347 280.199Z" fill="#933D04"/>
<path d="M215.184 294.42C217.048 296.285 217.048 296.285 217.34 299.956C217.266 302.33 217.176 303.517 215.999 305.608C213.414 306.987 211.537 306.9 208.658 306.54C206.909 305.55 206.909 305.55 205.861 303.744C205.453 300.48 205.453 300.48 205.861 297.217C208.525 294.04 211.199 293.987 215.184 294.42Z" fill="#97440D"/>
</svg>
