<svg width="400" height="400" viewBox="0 0 400 400" fill="none" xmlns="http://www.w3.org/2000/svg">
<path d="M323.157 188.587L211.381 76.8216C204.939 70.3896 194.507 70.3896 188.043 76.8216L164.885 100.022L194.325 129.462C201.205 127.168 209.035 128.715 214.475 134.166C219.979 139.659 221.493 147.584 219.147 154.432L247.499 182.806C254.379 180.427 262.293 181.974 267.765 187.446C275.456 195.126 275.456 207.542 267.765 215.222C260.096 222.891 247.701 222.891 240.032 215.222C234.283 209.451 232.843 200.96 235.723 193.931L209.173 167.52V237.12C211.051 238.038 212.821 239.286 214.379 240.832C221.984 248.523 221.984 260.918 214.379 268.566C206.709 276.256 194.229 276.256 186.549 268.566C178.88 260.896 178.88 248.523 186.549 240.854C188.491 238.934 190.677 237.483 193.003 236.523V166.24C190.688 165.27 188.48 163.872 186.603 161.963C180.789 156.15 179.392 147.648 182.379 140.534L153.451 111.467L76.8 188.064C70.4 194.518 70.4 204.96 76.8 211.414L188.587 323.168C195.029 329.611 205.461 329.611 211.904 323.168L323.157 211.915C329.611 205.483 329.611 195.04 323.157 188.587Z" fill="#F05032"/>
</svg>
