<svg width="400" height="400" viewBox="0 0 400 400" fill="none" xmlns="http://www.w3.org/2000/svg">
<path fill-rule="evenodd" clip-rule="evenodd" d="M135.808 214.837C111.114 192.224 91.5625 164.299 91.5625 123.979C96.6355 123.979 101.716 123.974 106.796 123.969C116.961 123.96 127.128 123.95 137.248 123.979C137.248 150.752 151.253 170.347 170.517 187.829L182.016 196.981L147.648 224.224L135.808 214.837ZM191.979 259.392L225.877 231.872C229.696 234.923 233.6 238.037 237.397 241.024C261.696 262.827 280.672 289.141 280.768 327.893H236.331C236.331 303.307 221.973 284.779 202.56 267.787L191.979 259.392Z" fill="#D93A2C"/>
<path d="M258.709 72L209.312 124L236.331 124.043C236.331 151.819 222.176 172.896 200.917 189.749L132.725 243.776C105.429 265.397 91.5625 290.624 91.5625 327.893C91.6692 327.797 137.248 328.171 137.248 327.893C137.248 307.52 145.035 289.696 160.96 276.768L232.672 218.581C260.085 196.341 280.821 166.741 280.853 124H308.437L258.709 72Z" fill="#4FB850"/>
</svg>
