<svg width="400" height="400" viewBox="0 0 400 400" fill="none" xmlns="http://www.w3.org/2000/svg">
<path d="M303.61 161.39C282.485 157.917 244.723 156.577 231.807 176.379C221.838 191.676 240.687 212.625 257.848 232.92C271.603 249.178 286.569 264.708 280.459 273.785C275.47 281.207 243.48 281.191 232.453 281.781C219.078 282.483 199.801 282.524 196.435 284.365C193.416 285.98 191.737 291.028 203.054 293.055C212.152 294.695 233.825 298.014 256.678 297.998C280.531 297.998 305.595 294.081 311.028 275.603C315.395 260.759 300.252 244.849 286.932 228.721C272.362 211.05 257.59 198.46 258.841 185.95C259.786 176.21 278.86 175.661 310.519 175.103C317.098 174.982 330.208 174.667 327.681 169.466C325.429 164.871 315.621 163.353 303.61 161.39ZM206.243 205.445C192.698 196.15 168.546 193.04 148.672 194.074C130.969 195.003 100.529 200.64 101.675 206.245C102.757 212.302 122.017 210.42 130.848 210.42C150.262 210.42 181.074 211.607 185.925 224.117C196.387 251.092 125.424 299.5 110.288 294.848C103.443 292.756 124.197 257.561 131.72 244.913C136.192 237.354 143.013 225.49 137.201 224.675C130.695 223.778 123.535 234.947 118.877 241.392C106.252 258.893 93.3287 278.009 82.9559 297.642C79.7351 303.707 69.104 321.959 72.7527 324.318C76.1672 326.514 92.3924 323.389 113.033 315.2C177.934 289.502 207.155 256.002 214.985 228.325C217.729 218.577 212.983 210.073 206.243 205.445ZM158.052 87.2353C156.728 82.8661 178.369 77.1886 202.11 76.1387C226.028 75.0888 254.321 79.8457 259.6 95.6345C268.237 121.502 224.437 159.226 186.28 177.769C176.916 182.291 171.258 183.543 168.885 183.228C166.64 182.929 166.285 180.829 167.02 179.384C168.368 176.662 174.543 171.122 182.769 165.097C225.729 133.697 239.694 110.664 231.581 101.344C226.375 95.368 204.604 91.2007 181.986 91.2007C175.851 91.2007 159.723 92.5413 158.052 87.2434" fill="#EE2722"/>
</svg>
