<svg width="60" height="60" viewBox="0 0 60 60" fill="none" xmlns="http://www.w3.org/2000/svg">
<path d="M37.5765 8L32.3765 25.9055H55.9999V14.4289C55.9999 12.5297 55.1874 10.8133 53.8874 9.64531C53.3389 9.14766 52.7194 8.75156 52.0491 8.47734C51.2975 8.1625 50.4139 8 49.6014 8H37.5765ZM42.1468 14.0938H49.6827C49.8147 14.0938 49.9264 14.2055 49.9264 14.3375V19.8219H40.4913L42.1468 14.0938Z" fill="#F29111"/>
<path d="M4 8L15.2328 47.5992C15.5172 48.5844 15.7711 49.1023 16.1469 49.6508C16.2789 49.8539 16.4312 50.0367 16.5836 50.2195C16.9594 50.6664 17.3859 51.0422 17.8633 51.357C18.3914 51.7125 18.9195 51.9766 19.5187 52.1695C20.2195 52.393 20.839 52.4641 21.6718 52.4641H31.046L35.1999 38.1031H49.9265V46.1266C49.9265 46.2586 49.8148 46.3703 49.6827 46.3703H39.1101L37.3429 52.4641H49.5913C51.257 52.4641 52.6991 51.875 53.8163 50.8898C55.1569 49.7117 55.9999 48.0461 55.9999 46.0453V32.0094H30.6093L26.4554 46.3703H21.2047L12.0539 14.0938H18.3812L21.7328 25.9055H28.05L22.9718 8H4Z" fill="#00758A"/>
</svg>
