<svg width="400" height="400" viewBox="0 0 400 400" fill="none" xmlns="http://www.w3.org/2000/svg">
<path d="M74.4356 161.316C74.4356 161.316 68.2004 156.822 75.6827 150.82L93.1153 135.232C93.1153 135.232 98.1034 129.984 103.377 134.557L264.246 256.351V314.754C264.246 314.754 264.168 323.925 252.399 322.912L74.4356 161.316Z" fill="#2489CA"/>
<path d="M115.901 198.961L74.4366 236.658C74.4366 236.658 70.1759 239.828 74.4366 245.491L93.6878 263.002C93.6878 263.002 98.2603 267.912 105.015 262.326L148.973 228.994L115.901 198.961Z" fill="#1070B3"/>
<path d="M188.696 199.273L264.74 141.207L264.246 83.116C264.246 83.116 260.998 70.4377 250.165 77.0367L148.973 169.136L188.696 199.273Z" fill="#0877B9"/>
<path d="M252.398 322.99C256.815 327.51 262.167 326.029 262.167 326.029L321.427 296.828C329.013 291.658 327.948 285.241 327.948 285.241V110.863C327.948 103.199 320.102 100.549 320.102 100.549L268.74 75.7898C257.516 68.8532 250.164 77.0369 250.164 77.0369C250.164 77.0369 259.621 70.2301 264.245 83.1162V313.689C264.245 315.274 263.907 316.832 263.232 318.235C261.881 320.963 258.945 323.509 251.905 322.444L252.398 322.99Z" fill="#3C99D4"/>
</svg>
